<svg viewBox="0 0 88 55" xmlns="http://www.w3.org/2000/svg" fill-rule="evenodd" clip-rule="evenodd" stroke-linejoin="round" stroke-miterlimit="2"><g transform="scale(0.8) translate(15 10)"><path d="M280.056 364.793a17.843 17.843 0 01-.019-.836c0-9.98 8.102-18.082 18.082-18.082 7.024 0 13.119 4.015 16.112 9.873a18.028 18.028 0 016.197-1.092c9.931 0 18.004 8.025 18.081 17.939a14.15 14.15 0 011.187-.049c7.728 0 14.002 6.274 14.002 14.002 0 7.728-6.274 14.002-14.002 14.002h-55.817c-9.98 0-18.082-8.102-18.082-18.081 0-8.669 6.113-15.921 14.259-17.676z" fill="url(#_brokenCloudsLinear1)" transform="matrix(.7965 0 0 .7965 -194.07 -274.558)"/><path d="M280.056 364.793a17.843 17.843 0 01-.019-.836c0-9.98 8.102-18.082 18.082-18.082 7.024 0 13.119 4.015 16.112 9.873a18.028 18.028 0 016.197-1.092c9.931 0 18.004 8.025 18.081 17.939a14.15 14.15 0 011.187-.049c7.728 0 14.002 6.274 14.002 14.002 0 7.728-6.274 14.002-14.002 14.002h-55.817c-9.98 0-18.082-8.102-18.082-18.081 0-8.669 6.113-15.921 14.259-17.676z" fill="url(#_brokenCloudsLinear2)" transform="matrix(.85023 0 0 .85023 -225.765 -285.9)"/></g><defs><linearGradient id="_brokenCloudsLinear1" x1="0" y1="0" x2="1" y2="0" gradientUnits="userSpaceOnUse" gradientTransform="matrix(0 -27.3376 17.0042 0 298.534 400.55)"><stop offset="0" stop-color="#ddd"/><stop offset="1" stop-color="#8596da"/></linearGradient><linearGradient id="_brokenCloudsLinear2" x1="0" y1="0" x2="1" y2="0" gradientUnits="userSpaceOnUse" gradientTransform="matrix(0 -27.3376 17.0042 0 298.534 400.55)"><stop offset="0" stop-color="#fff"/><stop offset="1" stop-color="#bbc5ea"/></linearGradient></defs></svg>