<svg viewBox="0 0 44 56" xmlns="http://www.w3.org/2000/svg" fill-rule="evenodd" clip-rule="evenodd" stroke-linejoin="round" stroke-miterlimit="2"><path d="M22.937.678a1.652 1.652 0 00-2.39 0s-9.932 10.41-15.894 20.494C1.96 25.725.107 30.242.107 33.78c0 11.941 9.695 21.635 21.636 21.635 11.94 0 21.635-9.694 21.635-21.635 0-3.538-1.854-8.055-4.546-12.608C32.87 11.088 22.937.678 22.937.678zm-1.194 3.57C18.98 7.274 12.047 15.16 7.497 22.854 5.153 26.817 3.411 30.7 3.411 33.78c0 10.117 8.214 18.331 18.332 18.331 10.117 0 18.33-8.214 18.33-18.33 0-3.081-1.742-6.964-4.086-10.927C31.44 15.16 24.504 7.274 21.743 4.248z" fill="#363636"/><path d="M21.626 46.74c-6.98 0-12.647-5.666-12.647-12.645a1.653 1.653 0 00-3.304 0c0 8.803 7.147 15.95 15.95 15.95a1.652 1.652 0 000-3.304z" fill="#363636"/></svg>