<?xml version="1.0" encoding="UTF-8" standalone="no"?>
<!DOCTYPE svg PUBLIC "-//W3C//DTD SVG 1.1//EN" "http://www.w3.org/Graphics/SVG/1.1/DTD/svg11.dtd">
<svg width="100%" height="100%" viewBox="0 0 44 56" version="1.1" xmlns="http://www.w3.org/2000/svg" xmlns:xlink="http://www.w3.org/1999/xlink" xml:space="preserve" xmlns:serif="http://www.serif.com/" style="fill-rule:evenodd;clip-rule:evenodd;stroke-linejoin:round;stroke-miterlimit:2;">
    <path d="M22.937,0.678C22.625,0.352 22.193,0.167 21.742,0.167C21.291,0.167 20.859,0.352 20.547,0.678C20.235,1.004 10.615,11.088 4.653,21.172C1.96,25.725 0.107,30.242 0.107,33.78C0.107,45.721 9.802,55.415 21.743,55.415C33.683,55.415 43.378,45.721 43.378,33.78C43.378,30.242 41.524,25.725 38.832,21.172C32.87,11.088 22.937,0.678 22.937,0.678ZM21.743,4.248C18.98,7.274 12.047,15.16 7.497,22.854C5.153,26.817 3.411,30.7 3.411,33.78C3.411,43.897 11.625,52.111 21.743,52.111C31.86,52.111 40.073,43.897 40.073,33.781C40.073,30.7 38.331,26.817 35.987,22.854C31.44,15.16 24.504,7.274 21.743,4.248Z" style="fill:rgb(210,210,210);"/>
    <path d="M21.626,46.74C14.646,46.74 8.979,41.074 8.979,34.095C8.948,33.21 8.212,32.499 7.327,32.499C6.442,32.499 5.706,33.21 5.675,34.095C5.675,42.898 12.822,50.045 21.625,50.045C22.531,50.045 23.277,49.299 23.277,48.393C23.277,47.487 22.531,46.741 21.625,46.741L21.626,46.74Z" style="fill:rgb(210,210,210);"/>
</svg>
