<svg viewBox="0 0 69 43" xmlns="http://www.w3.org/2000/svg" fill-rule="evenodd" clip-rule="evenodd" stroke-linejoin="round" stroke-miterlimit="2"><path d="M4513.74 6037.8l.11.01.09-.01h2.58a2 2 0 110 4h-19.37c-1.11 0-2-.89-2-2a2 2 0 012-2h16.59zm15.15-7.7h4.58v.04a1.997 1.997 0 010 3.92v.04h-33.78c-1.1 0-2-.9-2-2s.9-2 2-2h29.2zm-17.86-7.7H4526.41a2 2 0 110 4h-48.78a2 2 0 110-4h33.4zm-14.9-7.71l.1.01.1-.01h44.57a2 2 0 012 2c0 1.11-.89 2-2 2h-48.77a2 2 0 110-4h4zm14.02-7.7h15.37a2 2 0 012 2c0 1.11-.89 2-2 2h-48.77a2 2 0 110-4h33.4zm-.37-7.7h9.17v.15a2.02 2.02 0 011.23 1.85c0 .83-.51 1.54-1.23 1.84v.16h-25.77a2 2 0 110-4h16.6z" fill="url(#_mistIconLinear1)" transform="translate(-4474.52 -5999)"/><defs><linearGradient id="_mistIconLinear1" x1="0" y1="0" x2="1" y2="0" gradientUnits="userSpaceOnUse" gradientTransform="matrix(-12.2421 -32.8108 20.4667 -7.63636 4507.39 6032.1)"><stop offset="0" stop-color="#667cd0"/><stop offset="1" stop-color="#8596da"/></linearGradient></defs></svg>