<svg viewBox="0 0 62 54" xmlns="http://www.w3.org/2000/svg" fill-rule="evenodd" clip-rule="evenodd" stroke-linejoin="round" stroke-miterlimit="2"><path d="M11.096 51.21V1.642a1.626 1.626 0 00-3.25 0v49.566a1.626 1.626 0 003.25 0z" fill="#363636"/><path d="M4.211 50.192h12.103a1.626 1.626 0 010 3.251H2.586a1.625 1.625 0 01-1.625-1.625V1.643C.96.745 1.688.017 2.586.017h13.728a1.626 1.626 0 010 3.251H4.21v46.924z" fill="#363636"/><path d="M9.521 28.59h6.77a1.66 1.66 0 000-3.32h-6.77a1.66 1.66 0 000 3.32zM32.555 49.677a1.662 1.662 0 002.917 0l6.905-12.696a1.66 1.66 0 00-1.458-2.452H27.107a1.658 1.658 0 00-1.457 2.452l6.905 12.696zM29.9 37.848l4.113 7.563 4.114-7.563H29.9zM51.675 31.817a1.662 1.662 0 002.917 0l6.905-12.696a1.66 1.66 0 00-1.458-2.452H46.227a1.658 1.658 0 00-1.457 2.452l6.905 12.696zM49.02 19.988l4.113 7.563 4.114-7.563H49.02z" fill="#363636"/><path d="M51.47 4.963V18.33a1.66 1.66 0 003.32 0l-.001-13.367a1.66 1.66 0 00-3.32 0zM35.676 36.187V7.615a1.66 1.66 0 00-3.32 0v28.572a1.66 1.66 0 003.32 0zM9.521 15.803h4.55a1.66 1.66 0 000-3.319h-4.55a1.66 1.66 0 000 3.32zM9.521 40.875h4.55a1.66 1.66 0 000-3.319h-4.55a1.66 1.66 0 000 3.32z" fill="#363636"/></svg>