<?xml version="1.0" encoding="UTF-8" standalone="no"?>
<!DOCTYPE svg PUBLIC "-//W3C//DTD SVG 1.1//EN" "http://www.w3.org/Graphics/SVG/1.1/DTD/svg11.dtd">
<svg width="100%" height="100%" viewBox="0 0 62 54" version="1.1" xmlns="http://www.w3.org/2000/svg" xmlns:xlink="http://www.w3.org/1999/xlink" xml:space="preserve" xmlns:serif="http://www.serif.com/" style="fill-rule:evenodd;clip-rule:evenodd;stroke-linejoin:round;stroke-miterlimit:2;">
    <path d="M11.096,51.21L11.096,1.642C11.065,0.772 10.341,0.073 9.471,0.073C8.601,0.073 7.877,0.772 7.846,1.642L7.846,51.208C7.877,52.078 8.601,52.777 9.471,52.777C10.341,52.777 11.065,52.078 11.096,51.208L11.096,51.21Z" style="fill:rgb(210,210,210);"/>
    <path d="M4.21,50.192L16.314,50.192C17.191,50.214 17.9,50.941 17.9,51.817C17.9,52.694 17.191,53.421 16.314,53.443L2.586,53.443C1.695,53.443 0.961,52.709 0.961,51.818L0.961,1.643C0.96,0.745 1.688,0.017 2.586,0.017L16.314,0.017C17.191,0.039 17.9,0.766 17.9,1.642C17.9,2.519 17.191,3.246 16.314,3.268L4.21,3.268L4.21,50.192Z" style="fill:rgb(210,210,210);"/>
    <path d="M9.521,28.59L16.291,28.59C17.202,28.59 17.951,27.841 17.951,26.93C17.951,26.019 17.202,25.27 16.291,25.27L9.521,25.27C8.61,25.27 7.861,26.019 7.861,26.93C7.861,27.841 8.61,28.59 9.521,28.59ZM32.555,49.677C32.846,50.21 33.407,50.542 34.014,50.542C34.62,50.542 35.181,50.21 35.472,49.677L42.377,36.981C42.509,36.738 42.578,36.466 42.578,36.189C42.578,35.279 41.829,34.529 40.919,34.529L27.107,34.529C27.107,34.529 27.106,34.529 27.106,34.529C26.196,34.529 25.448,35.277 25.448,36.187C25.448,36.464 25.517,36.737 25.65,36.981L32.555,49.677ZM29.9,37.848L34.013,45.411L38.127,37.848L29.9,37.848ZM51.675,31.817C51.966,32.35 52.527,32.682 53.134,32.682C53.74,32.682 54.301,32.35 54.592,31.817L61.497,19.121C61.629,18.878 61.698,18.606 61.698,18.329C61.698,17.419 60.949,16.669 60.039,16.669L46.227,16.669C46.227,16.669 46.226,16.669 46.226,16.669C45.316,16.669 44.568,17.417 44.568,18.327C44.568,18.604 44.637,18.877 44.77,19.121L51.675,31.817ZM49.02,19.988L53.133,27.551L57.247,19.988L49.02,19.988Z" style="fill:rgb(210,210,210);"/>
    <path d="M51.47,4.963L51.47,18.33C51.47,19.241 52.219,19.99 53.13,19.99C54.041,19.99 54.79,19.241 54.79,18.33L54.789,4.963C54.789,4.052 54.04,3.303 53.129,3.303C52.218,3.303 51.469,4.052 51.469,4.963L51.47,4.963ZM35.676,36.187L35.676,7.615C35.676,6.704 34.927,5.955 34.016,5.955C33.105,5.955 32.356,6.704 32.356,7.615L32.356,36.187C32.356,37.098 33.105,37.847 34.016,37.847C34.927,37.847 35.676,37.098 35.676,36.187ZM9.521,15.803L14.071,15.803C14.966,15.781 15.69,15.039 15.69,14.144C15.69,13.248 14.966,12.506 14.071,12.484L9.521,12.484C8.61,12.484 7.861,13.233 7.861,14.144C7.861,15.055 8.61,15.804 9.521,15.804L9.521,15.803ZM9.521,40.875L14.071,40.875C14.966,40.853 15.69,40.111 15.69,39.216C15.69,38.32 14.966,37.578 14.071,37.556L9.521,37.556C8.61,37.556 7.861,38.305 7.861,39.216C7.861,40.127 8.61,40.876 9.521,40.876L9.521,40.875Z" style="fill:rgb(210,210,210);"/>
</svg>
