<svg viewBox="0 0 58 60" xmlns="http://www.w3.org/2000/svg" fill-rule="evenodd" clip-rule="evenodd" stroke-linejoin="round" stroke-miterlimit="2"><path d="M4504.78 5292.35v-8.69a2 2 0 114 0v8.69l1.29-1.64.06-.08.06-.08 2.47-3.14c.69-.87 1.95-1.02 2.81-.33.87.68 1.02 1.94.34 2.81l-7.03 8.92v9.9l9.99-3.92 3.62-6.18.05-.08.05-.09c1.11-1.9 2.02-3.45 2.02-3.45.56-.95 1.78-1.27 2.73-.71.96.55 1.28 1.78.72 2.73l-3.17 5.42 5.75-2.26.09-.03.09-.04c1.34-.53 2.15-.84 2.15-.84 1.03-.41 2.19.1 2.59 1.13.41 1.02-.1 2.19-1.13 2.59l-8.08 3.17 6.01 1.82c1.06.31 1.65 1.43 1.34 2.49a2.014 2.014 0 01-2.5 1.34l-10.87-3.28-7.92 3.1 7.1 4.69 7.13-.6.1-.01.1-.01c2.2-.18 3.99-.33 3.99-.33 1.1-.09 2.07.73 2.16 1.83.09 1.09-.73 2.06-1.83 2.16l-6.25.52 7.25 4.78c.92.61 1.17 1.85.56 2.78-.6.92-1.85 1.17-2.77.56l-7.25-4.78 1.98 5.96a1.99 1.99 0 01-1.27 2.52c-1.05.35-2.18-.22-2.53-1.26l-3.57-10.78-6.81-4.5-.08-.06-.09-.05-1.45-.96v9.45l7.03 8.92c.68.87.53 2.13-.34 2.81-.86.68-2.12.53-2.81-.33l-3.88-4.94v8.69c0 1.1-.9 2-2 2s-2-.9-2-2v-8.69l-3.88 4.94c-.69.86-1.95 1.01-2.81.33a2.003 2.003 0 01-.34-2.81l5.08-6.44.06-.08.06-.08 1.83-2.32V5314.89l-7.21 4.76-3.58 10.78a2.003 2.003 0 01-2.53 1.26 2.006 2.006 0 01-1.27-2.52l1.98-5.96-7.25 4.78c-.92.61-2.16.36-2.77-.56a2.01 2.01 0 01.57-2.78l7.25-4.78-2.07-.18-.1-.01h-.1c-2.2-.19-3.99-.33-3.99-.33-1.1-.1-1.92-1.07-1.82-2.16.09-1.1 1.06-1.92 2.16-1.83l11.32.95 6.8-4.5.09-.05.08-.06.12-.08-7.91-3.1-10.88 3.28c-1.06.31-2.17-.28-2.49-1.34-.32-1.06.28-2.18 1.34-2.49l6.01-1.82-5.75-2.25-.09-.04-.1-.04-2.15-.84a2 2 0 01-1.13-2.59c.4-1.03 1.57-1.54 2.59-1.13l8.09 3.17-1.05-1.79-.05-.09-.05-.09c-1.12-1.9-2.02-3.45-2.02-3.45a1.99 1.99 0 01.71-2.73c.95-.56 2.18-.24 2.74.71l5.74 9.8 8.77 3.44v-9.42l-7.03-8.92c-.68-.87-.53-2.13.34-2.81.86-.69 2.12-.54 2.81.33l3.88 4.94z" fill="url(#_snowIconLinear1)" transform="translate(-4478.52 -5281)"/><defs><linearGradient id="_snowIconLinear1" x1="0" y1="0" x2="1" y2="0" gradientUnits="userSpaceOnUse" gradientTransform="matrix(-23.7987 -37.6062 39.3311 -24.8903 4523.2 5327.97)"><stop offset="0" stop-color="#667cd0"/><stop offset="1" stop-color="#8596da"/></linearGradient></defs></svg>