<svg viewBox="0 0 65 55" xmlns="http://www.w3.org/2000/svg" fill-rule="evenodd" clip-rule="evenodd" stroke-linecap="round" stroke-linejoin="round" stroke-miterlimit="1.5"><path d="M280.056 364.793a17.843 17.843 0 01-.019-.836c0-9.98 8.102-18.082 18.082-18.082 7.024 0 13.119 4.015 16.112 9.873a18.028 18.028 0 016.197-1.092c9.931 0 18.004 8.025 18.081 17.939a14.15 14.15 0 011.187-.049c7.728 0 14.002 6.274 14.002 14.002 0 7.728-6.274 14.002-14.002 14.002h-55.817c-9.98 0-18.082-8.102-18.082-18.081 0-8.669 6.113-15.921 14.259-17.676z" fill="url(#_thunderstormIconLinear1)" transform="matrix(.58144 0 0 .58144 -140.983 -200.458)"/><path d="M280.056 364.793a17.843 17.843 0 01-.019-.836c0-9.98 8.102-18.082 18.082-18.082 7.024 0 13.119 4.015 16.112 9.873a18.028 18.028 0 016.197-1.092c9.931 0 18.004 8.025 18.081 17.939a14.15 14.15 0 011.187-.049c7.728 0 14.002 6.274 14.002 14.002 0 7.728-6.274 14.002-14.002 14.002h-55.817c-9.98 0-18.082-8.102-18.082-18.081 0-8.669 6.113-15.921 14.259-17.676z" fill="url(#_thunderstormIconLinear2)" transform="matrix(.62066 0 0 .62067 -164.119 -208.74)"/><path d="M4495.88 3190.93l-4.75 12.79" fill="none" stroke="#798cd6" stroke-width="4" stroke-dasharray="4,8,0,0" transform="translate(-4484.49 -3150.743)"/><path d="M4495.88 3190.93l-4.75 12.79" fill="none" stroke="#798cd6" stroke-width="4" stroke-dasharray="4,8,0,0" transform="translate(-4448.79 -3150.743)"/><path d="M4491.13 3203.72l4.75-12.79" fill="none" stroke="#798cd6" stroke-width="4" stroke-dasharray="4,8,0,0" transform="translate(-4460.69 -3150.743)"/><path d="M4497.06 4637.87l-2.51 8.71h7.25l-2.37 6.39" fill="none" stroke="url(#_thunderstormIconLinear3)" stroke-width="4" stroke-dasharray="4,.2,0,0" transform="translate(-4478.52 -4600)"/><defs><linearGradient id="_thunderstormIconLinear1" x1="0" y1="0" x2="1" y2="0" gradientUnits="userSpaceOnUse" gradientTransform="matrix(0 -27.3376 17.0042 0 298.534 400.55)"><stop offset="0" stop-color="#ddd"/><stop offset="1" stop-color="#8596da"/></linearGradient><linearGradient id="_thunderstormIconLinear2" x1="0" y1="0" x2="1" y2="0" gradientUnits="userSpaceOnUse" gradientTransform="matrix(0 -27.3376 17.0042 0 298.534 400.55)"><stop offset="0" stop-color="#fff"/><stop offset="1" stop-color="#bbc5ea"/></linearGradient><linearGradient id="_thunderstormIconLinear3" x1="0" y1="0" x2="1" y2="0" gradientUnits="userSpaceOnUse" gradientTransform="matrix(7.25701 0 0 15.1066 4494.55 4645.42)"><stop offset="0" stop-color="#f1684c"/><stop offset="1" stop-color="#f9c268"/></linearGradient></defs></svg>