<svg viewBox="0 0 57 37" xmlns="http://www.w3.org/2000/svg" fill-rule="evenodd" clip-rule="evenodd" stroke-linejoin="round" stroke-miterlimit="2"><path d="M1.988 14.191h31.047a6.837 6.837 0 006.836-6.836v-.003A6.836 6.836 0 0033.035.516h-2.917a1.653 1.653 0 000 3.304h2.917a3.532 3.532 0 013.532 3.532v.003a3.529 3.529 0 01-3.532 3.532H1.988a1.653 1.653 0 000 3.304zM1.988 25.896h38.953a3.532 3.532 0 013.532 3.532v.003a3.532 3.532 0 01-3.532 3.532h-2.917a1.653 1.653 0 000 3.304h2.917a6.836 6.836 0 006.836-6.836v-.003a6.836 6.836 0 00-6.836-6.836H1.988a1.653 1.653 0 000 3.304z" fill="#363636"/><path d="M1.806 20.009h48.298a6.836 6.836 0 006.835-6.836v-.003a6.836 6.836 0 00-6.836-6.836h-2.917a1.653 1.653 0 000 3.304h2.917a3.532 3.532 0 013.532 3.532v.003a3.532 3.532 0 01-3.531 3.532H1.806a1.653 1.653 0 000 3.304z" fill="#363636"/></svg>