<svg width="100%" height="100%" viewBox="0 0 57 37" version="1.1" xmlns="http://www.w3.org/2000/svg" xmlns:xlink="http://www.w3.org/1999/xlink" xml:space="preserve" xmlns:serif="http://www.serif.com/" style="fill-rule:evenodd;clip-rule:evenodd;stroke-linejoin:round;stroke-miterlimit:2;">
    <path d="M1.988,14.191L33.035,14.191C36.785,14.19 39.87,11.105 39.871,7.355L39.871,7.352C39.871,3.602 36.785,0.516 33.035,0.516L30.118,0.516C29.233,0.547 28.522,1.283 28.522,2.168C28.522,3.053 29.233,3.789 30.118,3.82L33.035,3.82C34.973,3.82 36.567,5.414 36.567,7.352L36.567,7.358C36.567,9.294 34.974,10.887 33.038,10.887C33.037,10.887 33.036,10.887 33.035,10.887L1.988,10.887C1.103,10.918 0.392,11.654 0.392,12.539C0.392,13.424 1.103,14.16 1.988,14.191ZM1.988,25.896L40.941,25.896C42.879,25.896 44.473,27.49 44.473,29.428L44.473,29.431C44.473,31.369 42.879,32.963 40.941,32.963L38.024,32.963C37.139,32.994 36.428,33.73 36.428,34.615C36.428,35.5 37.139,36.236 38.024,36.267L40.941,36.267C44.691,36.267 47.777,33.181 47.777,29.431L47.777,29.428C47.777,25.678 44.691,22.592 40.941,22.592L1.988,22.592C1.103,22.623 0.392,23.359 0.392,24.244C0.392,25.129 1.103,25.865 1.988,25.896Z" style="fill:rgb(210,210,210);"/>
    <path d="M1.806,20.009L50.104,20.009C53.854,20.008 56.939,16.923 56.939,13.173L56.939,13.17C56.939,9.42 53.853,6.334 50.103,6.334L47.186,6.334C46.301,6.365 45.59,7.101 45.59,7.986C45.59,8.871 46.301,9.607 47.186,9.638L50.103,9.638C52.041,9.638 53.635,11.232 53.635,13.17L53.635,13.173C53.635,15.11 52.041,16.704 50.104,16.705L1.806,16.705C0.921,16.736 0.21,17.472 0.21,18.357C0.21,19.242 0.921,19.978 1.806,20.009Z" style="fill:rgb(210,210,210);"/>
</svg>
